<svg width="96" height="94" viewBox="0 0 96 94" fill="none" xmlns="http://www.w3.org/2000/svg">
<rect width="96" height="94" fill="white"/>
<path d="M70.4105 35.9911C70.4056 35.715 70.1778 35.4952 69.9017 35.5001L65.4024 35.5805C65.1263 35.5854 64.9064 35.8132 64.9114 36.0893C64.9163 36.3654 65.1441 36.5852 65.4202 36.5803L69.4196 36.5089L69.491 40.5082C69.496 40.7843 69.7238 41.0042 69.9999 40.9992C70.276 40.9943 70.4958 40.7665 70.4909 40.4904L70.4105 35.9911ZM53.2704 53.9656L70.2704 36.3472L69.5508 35.6528L52.5508 53.2712L53.2704 53.9656Z" fill="#001AFF"/>
<rect x="3.7068" y="55.875" width="74.6099" height="12" transform="rotate(-43.2994 3.7068 55.875)" fill="#FF0000" stroke="black" stroke-dasharray="2 2"/>
<path d="M61.9106 66.5L35.9106 36C50.9106 20.5 75.9106 24.5 87.4106 36L61.9106 66.5Z" fill="url(#paint0_linear_6_5)" fill-opacity="0.75"/>
<line x1="61.7191" y1="66.4811" x2="87.4306" y2="35.8393" stroke="black" stroke-width="0.5"/>
<line x1="36.1021" y1="35.8393" x2="61.8136" y2="66.4811" stroke="black" stroke-width="0.5"/>
<path d="M41.9606 75.625L41.9606 51.1457C46.699 46.4173 53.9276 44.05 61.4106 44.05C68.893 44.05 76.6228 46.4171 82.3606 51.1486V51.2042V51.2834V51.3629V51.4424V51.522V51.6018V51.6817V51.7617V51.8419V51.9221V52.0025V52.083V52.1635V52.2442V52.3251V52.406V52.487V52.5681V52.6494V52.7307V52.8122V52.8937V52.9754V53.0572V53.139V53.221V53.303V53.3852V53.4674V53.5498V53.6322V53.7147V53.7973V53.88V53.9628V54.0457V54.1287V54.2117V54.2949V54.3781V54.4614V54.5448V54.6282V54.7118V54.7954V54.8791V54.9629V55.0467V55.1306V55.2146V55.2987V55.3828V55.467V55.5513V55.6356V55.72V55.8045V55.889V55.9736V56.0583V56.143V56.2277V56.3126V56.3975V56.4824V56.5674V56.6524V56.7375V56.8227V56.9079V56.9932V57.0785V57.1638V57.2492V57.3347V57.4201V57.5057V57.5912V57.6768V57.7625V57.8482V57.9339V58.0197V58.1055V58.1913V58.2771V58.363V58.449V58.5349V58.6209V58.7069V58.7929V58.879V58.9651V59.0512V59.1373V59.2235V59.3096V59.3958V59.482V59.5683V59.6545V59.7407V59.827V59.9133V59.9996V60.0859V60.1722V60.2585V60.3448V60.4311V60.5175V60.6038V60.6901V60.7765V60.8628V60.9491V61.0355V61.1218V61.2081V61.2944V61.3808V61.4671V61.5534V61.6396V61.7259V61.8122V61.8984V61.9847V62.0709V62.1571V62.2433V62.3294V62.4156V62.5017V62.5878V62.6739V62.76V62.846V62.932V63.018V63.1039V63.1898V63.2757V63.3616V63.4474V63.5332V63.619V63.7047V63.7904V63.876V63.9616V64.0472V64.1327V64.2182V64.3036V64.389V64.4743V64.5596V64.6449V64.7301V64.8152V64.9003V64.9854V65.0704V65.1553V65.2402V65.325V65.4098V65.4945V65.5791V65.6637V65.7482V65.8327V65.9171V66.0014V66.0857V66.1699V66.254V66.338V66.422V66.5059V66.5898V66.6735V66.7572V66.8408V66.9244V67.0078V67.0912V67.1745V67.2577V67.3408V67.4239V67.5068V67.5897V67.6725V67.7552V67.8378V67.9203V68.0027V68.085V68.1673V68.2494V68.3314V68.4134V68.4952V68.577V68.6586V68.7401V68.8216V68.9029V68.9842V69.0653V69.1463V69.2272V69.308V69.3887V69.4693V69.5497V69.6301V69.7103V69.7904V69.8704V69.9503V70.0301V70.1097V70.1892V70.2686V70.3479V70.4271V70.5061V70.585V70.6637V70.7424V70.8209V70.8993V70.9775V71.0556V71.1336V71.2114V71.2891V71.3667V71.4441V71.5214V71.5986V71.6756V71.7524V71.8291V71.9057V71.9821V72.0584V72.1345V72.2105V72.2863V72.362V72.4375V72.5129V72.5881V72.6631V72.738V72.8127V72.8873V72.9617V73.036V73.1101V73.184V73.2577V73.3313V73.4047V73.478V73.5511V73.624V73.6967V73.7693V73.8417V73.9139V73.986V74.0578V74.1295V74.201V74.2723V74.3435V74.4144V74.4852V74.5558V74.6262V74.6964V74.7665V74.8363V74.906V74.9754V75.0447V75.1138V75.1826V75.2513V75.3198V75.3881V75.4562V75.524V75.5917V75.6592V75.7265V75.7936V75.8604V75.9271V75.9935V76.0598V76.1258V76.1916V76.2572V76.3226V76.3878V76.4528V76.5175V76.582V76.6463V76.7104V76.7743V76.8379V76.9014V76.9646V77.0275V77.0903V77.1528V77.2151V77.2771V77.339V77.4005V77.4619V77.523V77.5839V77.6446V77.705V77.7652V77.8251V77.8848V77.9443V78.0035V78.0624V78.1212V78.1796V78.2379V78.2958V78.3536V78.411V78.4683V78.5252V78.582V78.6384V78.6946V78.7506V78.8063V78.8617V78.9169V78.9718V79.0264V79.0808V79.1349V79.1888V79.2423V79.2957V79.3487V79.4015V79.454V79.5062V79.5582V79.6098V79.6613V79.7124V79.7632V79.8138V79.8641V79.9141V79.9638V80.0133V80.0624V80.1113V80.1599V80.2082V80.2562V80.3039V80.3513V80.3985V80.4453V80.4918V80.5381V80.584V80.6297V80.675V80.7201V80.7649V80.8093V80.8535V80.8973V80.9408V80.9841V81.027V81.0696V81.1119V81.1539V81.1956V81.2369V81.278V81.3187V81.3592V81.3993V81.439V81.4785V81.5177V81.5565V81.595V81.6331V81.671V81.7085V81.7457V81.7826V81.8191V81.8553V81.8912V81.9267V81.9619V81.9968V82.0313V82.0655V82.0994V82.1329V82.1661V82.1989V82.2314V82.2636V82.2954V82.3268V82.358V82.3887V82.4191V82.4492V82.4789V82.5083V82.5373V82.5659V82.5942V82.6221V82.6497V82.6769V82.7038V82.7303V82.7564V82.7822V82.8076V82.8327V82.8573V82.8816V82.9056V82.9291V82.9523V82.9752V82.9976V83.0197V83.0414V83.0627V83.0836V83.1042V83.1244V83.1442V83.1636V83.1827V83.2013V83.2196V83.2375V83.2549V83.272V83.2888V83.3051V83.321V83.3366V83.3517V83.3664V83.3808V83.3948V83.4083V83.4215V83.4342V83.4466V83.4585V83.4701V83.4812V83.4919V83.5023V83.5122V83.5217V83.5308V83.5395V83.5477V83.5556V83.563V83.5701V83.575H41.9606L41.9606 83.5017L41.9606 83.1308L41.9606 81.6406L41.9606 75.625Z" fill="#848484" stroke="black" stroke-width="0.1"/>
<path d="M60.2651 51.575L61.9106 48.725L63.556 51.575H60.2651Z" fill="white" stroke="black" stroke-width="0.1"/>
<path d="M63.556 57.675L61.9106 60.525L60.2651 57.675H63.556Z" fill="white" stroke="black" stroke-width="0.1"/>
<path d="M64.9606 52.9796L67.8106 54.625L64.9606 56.2704V52.9796Z" fill="white" stroke="black" stroke-width="0.1"/>
<path d="M58.8606 56.2704L56.0106 54.625L58.8606 52.9796V56.2704Z" fill="white" stroke="black" stroke-width="0.1"/>
<circle cx="61.9106" cy="54.625" r="1.95" fill="white" stroke="black" stroke-width="0.1"/>
<circle cx="61.9106" cy="78.625" r="1.95" fill="#444444" stroke="black" stroke-width="0.1"/>
<defs>
<linearGradient id="paint0_linear_6_5" x1="61.6606" y1="25.82" x2="61.6606" y2="66.5" gradientUnits="userSpaceOnUse">
<stop stop-opacity="0.05"/>
<stop offset="0.806243"/>
</linearGradient>
</defs>
</svg>
