<svg width="440" height="548" viewBox="0 0 440 548" fill="none" xmlns="http://www.w3.org/2000/svg">
<rect width="440" height="548" fill="white"/>
<rect x="33" y="26" width="366" height="485" fill="#EFEFEF"/>
<rect x="48" y="43.4797" width="30" height="30" transform="rotate(-6.66082 48 43.4797)" fill="#B00000"/>
<rect x="349.394" y="43.9192" width="30" height="30" transform="rotate(2.8186 349.394 43.9192)" fill="#B00000"/>
<rect x="349.089" y="446.282" width="30" height="30" transform="rotate(1.69623 349.089 446.282)" fill="#B00000"/>
<rect x="48.1524" y="449.422" width="30" height="30" transform="rotate(-9.56985 48.1524 449.422)" fill="#B00000"/>
<path d="M154.923 132.077C153.636 145.45 138.59 157.854 123.673 157.839C115.086 147.423 103 132.762 103 132.762L134.25 107C134.25 107 140.929 115.102 154.923 132.077Z" fill="#848484"/>
<path d="M141.081 146.728L137.837 145.515L140.51 143.312L141.081 146.728Z" fill="white"/>
<path d="M133.448 137.469L136.693 138.682L134.02 140.886L133.448 137.469Z" fill="white"/>
<path d="M132.635 145.915L133.848 142.67L136.052 145.343L132.635 145.915Z" fill="white"/>
<path d="M141.894 138.282L140.681 141.527L138.478 138.854L141.894 138.282Z" fill="white"/>
<circle cx="137.265" cy="142.099" r="2" transform="rotate(140.498 137.265 142.099)" fill="white"/>
<circle cx="121.998" cy="123.58" r="2" transform="rotate(140.498 121.998 123.58)" fill="#444444"/>
<rect x="66.5" y="54.5" width="298" height="407" stroke="black" stroke-dasharray="2 2"/>
<path d="M64.9393 137.061C65.5251 137.646 66.4749 137.646 67.0607 137.061L76.6066 127.515C77.1924 126.929 77.1924 125.979 76.6066 125.393C76.0208 124.808 75.0711 124.808 74.4853 125.393L66 133.879L57.5147 125.393C56.9289 124.808 55.9792 124.808 55.3934 125.393C54.8076 125.979 54.8076 126.929 55.3934 127.515L64.9393 137.061ZM64.5 53V136H67.5V53H64.5Z" fill="#00774C"/>
<path d="M134.061 55.0607C134.646 54.4749 134.646 53.5251 134.061 52.9393L124.515 43.3934C123.929 42.8076 122.979 42.8076 122.393 43.3934C121.808 43.9792 121.808 44.9289 122.393 45.5147L130.879 54L122.393 62.4853C121.808 63.0711 121.808 64.0208 122.393 64.6066C122.979 65.1924 123.929 65.1924 124.515 64.6066L134.061 55.0607ZM65 55.5L133 55.5V52.5L65 52.5V55.5Z" fill="#00774C"/>
<path d="M95.6705 40.4545L97.2386 43.1307L98.8068 40.4545H99.9659L97.8523 43.7273L99.9659 47H98.8068L97.2386 44.4602L95.6705 47H94.5114L96.5909 43.7273L94.5114 40.4545H95.6705Z" fill="#00774C"/>
<path d="M55.5682 99.4545C55.3977 99.4545 55.2457 99.4403 55.1122 99.4119C54.9787 99.3864 54.8864 99.3608 54.8352 99.3352L55.0909 98.4489C55.3352 98.5114 55.5511 98.5341 55.7386 98.517C55.9261 98.5 56.0923 98.4162 56.2372 98.2656C56.3849 98.1179 56.5199 97.8778 56.642 97.5455L56.8295 97.0341L54.4091 90.4545H55.5L57.3068 95.6705H57.375L59.1818 90.4545H60.2727L57.4943 97.9545C57.3693 98.2926 57.2145 98.5724 57.0298 98.794C56.8452 99.0185 56.6307 99.1847 56.3864 99.2926C56.1449 99.4006 55.8722 99.4545 55.5682 99.4545Z" fill="#00774C"/>
<path d="M66.4384 54.1012L130 134" stroke="#00774C" stroke-width="2"/>
<circle cx="66" cy="54" r="5" fill="#00774C"/>
<path d="M124.994 140.42C124.95 140.148 124.693 139.962 124.42 140.006L119.978 140.723C119.705 140.767 119.52 141.024 119.564 141.296C119.608 141.569 119.864 141.754 120.137 141.71L124.086 141.073L124.723 145.022C124.767 145.295 125.024 145.48 125.296 145.436C125.569 145.392 125.754 145.136 125.71 144.863L124.994 140.42ZM74.5 145C74.2028 145.402 74.203 145.402 74.2032 145.402C74.2034 145.403 74.2037 145.403 74.2039 145.403C74.2045 145.403 74.2052 145.404 74.2061 145.405C74.2079 145.406 74.2105 145.408 74.2137 145.41C74.2201 145.415 74.2293 145.421 74.2413 145.43C74.2652 145.447 74.3002 145.472 74.3461 145.504C74.4378 145.569 74.5729 145.662 74.7497 145.778C75.1032 146.012 75.6236 146.342 76.2972 146.73C77.644 147.506 79.605 148.518 82.0705 149.467C87.0003 151.363 93.9597 153.009 102.062 151.996L101.938 151.004C94.0403 151.991 87.2497 150.387 82.4295 148.533C80.02 147.607 78.106 146.619 76.7966 145.864C76.142 145.486 75.639 145.168 75.3011 144.944C75.1322 144.833 75.0046 144.745 74.92 144.686C74.8777 144.656 74.8462 144.633 74.8257 144.619C74.8154 144.611 74.8079 144.606 74.8031 144.602C74.8007 144.601 74.7991 144.599 74.7981 144.599C74.7976 144.598 74.7973 144.598 74.7971 144.598C74.797 144.598 74.7971 144.598 74.797 144.598C74.7971 144.598 74.7972 144.598 74.5 145ZM102.062 151.996C110.149 150.985 115.849 148.203 119.534 145.662C121.375 144.392 122.712 143.183 123.591 142.288C124.031 141.84 124.356 141.471 124.573 141.211C124.682 141.081 124.763 140.979 124.818 140.908C124.846 140.872 124.867 140.845 124.881 140.825C124.888 140.816 124.894 140.808 124.898 140.803C124.9 140.8 124.902 140.798 124.903 140.796C124.904 140.795 124.904 140.795 124.904 140.794C124.905 140.794 124.905 140.793 124.905 140.793C124.905 140.793 124.905 140.793 124.5 140.5C124.095 140.207 124.095 140.207 124.095 140.207C124.095 140.207 124.095 140.207 124.095 140.207C124.095 140.207 124.095 140.207 124.095 140.207C124.094 140.208 124.094 140.209 124.092 140.21C124.09 140.214 124.086 140.219 124.081 140.226C124.069 140.241 124.052 140.264 124.028 140.295C123.98 140.357 123.906 140.45 123.806 140.57C123.605 140.81 123.297 141.16 122.878 141.587C122.038 142.442 120.75 143.608 118.966 144.838C115.401 147.297 109.851 150.015 101.938 151.004L102.062 151.996Z" fill="#00FFFF"/>
<path d="M103.324 122.136C102.778 122.131 102.303 121.983 101.896 121.693C101.49 121.401 101.175 120.999 100.95 120.487C100.726 119.976 100.614 119.389 100.614 118.727C100.614 118.071 100.732 117.491 100.967 116.989C101.206 116.483 101.534 116.087 101.952 115.8C102.369 115.513 102.849 115.369 103.392 115.369C103.79 115.369 104.134 115.446 104.423 115.599C104.713 115.75 104.959 115.96 105.161 116.23C105.365 116.5 105.537 116.81 105.676 117.159H106.068L106.222 118.71L107.074 122H106.136L105.335 118.71C105.293 118.503 105.227 118.261 105.139 117.986C105.051 117.71 104.933 117.442 104.786 117.18C104.638 116.919 104.449 116.703 104.219 116.533C103.991 116.359 103.716 116.273 103.392 116.273C103.045 116.273 102.739 116.378 102.472 116.588C102.205 116.798 101.996 117.089 101.845 117.462C101.695 117.834 101.619 118.261 101.619 118.744C101.619 119.216 101.69 119.641 101.832 120.018C101.974 120.393 102.173 120.69 102.429 120.909C102.685 121.125 102.983 121.233 103.324 121.233C103.639 121.233 103.913 121.146 104.146 120.973C104.379 120.797 104.575 120.577 104.734 120.312C104.893 120.045 105.021 119.771 105.118 119.49C105.217 119.206 105.29 118.957 105.335 118.744L106.051 115.455H106.989L106.222 118.744L106.068 120.347H105.727C105.58 120.699 105.395 121.011 105.173 121.284C104.955 121.554 104.692 121.764 104.385 121.915C104.081 122.065 103.727 122.139 103.324 122.136Z" fill="#00FFFF"/>
<path d="M139.5 313L238.5 331L117.046 386.5L139.5 313Z" fill="#010100"/>
<path d="M222.954 113L321.954 131L282.5 223.5L222.954 113Z" fill="#010100"/>
<circle cx="306" cy="396" r="29.5" fill="#FFE600" stroke="black" stroke-dasharray="2 2"/>
<path d="M288.761 404V389.455H297.54V391.017H290.523V395.932H297.085V397.494H290.523V402.438H297.653V404H288.761ZM312.249 389.455V404H310.544L302.618 392.58H302.476V404H300.714V389.455H302.419L310.374 400.903H310.516V389.455H312.249ZM320.262 404H315.773V389.455H320.461C321.872 389.455 323.079 389.746 324.083 390.328C325.087 390.906 325.856 391.737 326.391 392.821C326.926 393.901 327.194 395.193 327.194 396.699C327.194 398.214 326.924 399.518 326.384 400.612C325.844 401.701 325.058 402.539 324.026 403.126C322.994 403.709 321.739 404 320.262 404ZM317.534 402.438H320.148C321.351 402.438 322.347 402.205 323.138 401.741C323.929 401.277 324.518 400.617 324.907 399.76C325.295 398.903 325.489 397.883 325.489 396.699C325.489 395.525 325.297 394.514 324.914 393.666C324.53 392.814 323.957 392.161 323.195 391.706C322.433 391.247 321.483 391.017 320.347 391.017H317.534V402.438Z" fill="black"/>
<circle cx="171" cy="87" r="29.5" fill="#FFE600" stroke="black" stroke-dasharray="2 2"/>
<path d="M155.287 82.8182C155.223 82.2784 154.964 81.8594 154.509 81.5611C154.055 81.2628 153.497 81.1136 152.837 81.1136C152.354 81.1136 151.931 81.1918 151.569 81.348C151.21 81.5043 150.93 81.7191 150.727 81.9925C150.528 82.266 150.429 82.5767 150.429 82.9247C150.429 83.2159 150.498 83.4663 150.637 83.6758C150.779 83.8817 150.96 84.054 151.18 84.1925C151.4 84.3274 151.631 84.4393 151.873 84.5281C152.114 84.6133 152.336 84.6825 152.538 84.7358L153.646 85.0341C153.93 85.1087 154.246 85.2116 154.594 85.343C154.946 85.4744 155.282 85.6538 155.601 85.881C155.924 86.1048 156.191 86.3924 156.4 86.744C156.61 87.0955 156.714 87.527 156.714 88.0384C156.714 88.6278 156.56 89.1605 156.251 89.6364C155.946 90.1122 155.498 90.4904 154.909 90.771C154.323 91.0515 153.611 91.1918 152.773 91.1918C151.991 91.1918 151.315 91.0657 150.743 90.8136C150.175 90.5614 149.728 90.2099 149.401 89.7589C149.078 89.3079 148.895 88.7841 148.852 88.1875H150.216C150.251 88.5994 150.39 88.9403 150.631 89.2102C150.876 89.4766 151.185 89.6754 151.558 89.8068C151.935 89.9347 152.339 89.9986 152.773 89.9986C153.277 89.9986 153.73 89.9169 154.131 89.7536C154.532 89.5866 154.85 89.3558 155.085 89.0611C155.319 88.7628 155.436 88.4148 155.436 88.017C155.436 87.6548 155.335 87.3601 155.132 87.1328C154.93 86.9055 154.664 86.7209 154.333 86.5788C154.003 86.4368 153.646 86.3125 153.263 86.206L151.92 85.8224C151.068 85.5774 150.393 85.2276 149.896 84.7731C149.399 84.3185 149.151 83.7237 149.151 82.9886C149.151 82.3778 149.316 81.8452 149.646 81.3906C149.98 80.9325 150.427 80.5774 150.988 80.3253C151.553 80.0696 152.183 79.9418 152.879 79.9418C153.582 79.9418 154.207 80.0678 154.754 80.32C155.301 80.5685 155.734 80.9094 156.054 81.3427C156.377 81.7759 156.548 82.2678 156.565 82.8182H155.287ZM158.29 81.2628V80.0909H166.472V81.2628H163.041V91H161.72V81.2628H158.29ZM167.684 91H166.299L170.304 80.0909H171.668L175.674 91H174.289L171.029 81.8168H170.943L167.684 91ZM168.195 86.7386H173.777V87.9105H168.195V86.7386ZM177.373 91V80.0909H181.059C181.911 80.0909 182.611 80.2365 183.158 80.5277C183.704 80.8153 184.109 81.2113 184.372 81.7156C184.635 82.2198 184.766 82.7933 184.766 83.4361C184.766 84.0788 184.635 84.6488 184.372 85.146C184.109 85.6431 183.706 86.0337 183.163 86.3178C182.62 86.5984 181.925 86.7386 181.08 86.7386H178.097V85.5455H181.038C181.62 85.5455 182.089 85.4602 182.444 85.2898C182.802 85.1193 183.062 84.8778 183.222 84.5653C183.385 84.2493 183.467 83.8729 183.467 83.4361C183.467 82.9993 183.385 82.6175 183.222 82.2908C183.058 81.9641 182.797 81.712 182.438 81.5344C182.08 81.3533 181.606 81.2628 181.016 81.2628H178.694V91H177.373ZM182.508 86.0994L185.192 91H183.658L181.016 86.0994H182.508ZM186.371 81.2628V80.0909H194.553V81.2628H191.122V91H189.801V81.2628H186.371Z" fill="black"/>
<path d="M212.498 195.443L230.103 190.506L221.652 200.905L221.617 200.949L221.673 200.945L238.661 199.986L248.639 210.921L243.153 217.444L243.105 217.501L243.177 217.485L254.159 214.989L257.145 220.343L254.154 228.935H248.672L248.662 228.983L259.123 233.586L254.157 237.44L254.148 237.447L254.147 237.457L252.65 250.43L243.177 248.436L243.177 248.434L243.168 248.436L230.173 250.435L221.678 248.436L221.662 248.432L221.652 248.445L216.659 254.975H204.865L199.363 246.496L202.696 235.507L202.703 235.484L202.679 235.476L196.692 233.56L192.525 220.337V208.954L199.329 210.944L199.361 210.954V210.92V195.468L207.322 200.941L207.339 200.953L207.354 200.938L212.498 195.443Z" fill="url(#paint0_linear_1_2)" stroke="black" stroke-width="0.05"/>
<path d="M204.807 372.445L204.806 372.445H204.813H211.807L213.975 384.465L213.986 384.524L214.02 384.475L224.839 368.988L232.805 370.481L235.475 394.463L235.478 394.491L235.506 394.485L246.468 391.993L244.804 400.956L244.8 400.955L244.804 400.968L246.476 405.968L246.473 405.969L246.483 405.979L251.47 410.586L244.812 425.435H241V425.435L240.995 425.436L230.334 427.434L221.843 421.44L221.83 421.431L221.817 421.438L213.99 425.437L201.353 430.423V425.46H201.355L201.352 425.451L197.203 414.451L197.199 414.442L197.19 414.438L189.013 410.558L182.865 405.956L189.019 398.977L189.032 398.962L189.021 398.946L181.376 387.945H191.664H191.683L191.688 387.927L195.024 376.468L197.195 370.49L204.807 372.445Z" fill="url(#paint1_linear_1_2)" stroke="black" stroke-width="0.05"/>
<defs>
<linearGradient id="paint0_linear_1_2" x1="216" y1="188" x2="235" y2="255" gradientUnits="userSpaceOnUse">
<stop stop-color="#5E5E5E"/>
<stop offset="0.135417" stop-color="#5E5E5E" stop-opacity="0.75"/>
<stop offset="0.333333" stop-color="#5E5E5E"/>
<stop offset="0.5" stop-color="#5E5E5E" stop-opacity="0.75"/>
<stop offset="0.666667" stop-color="#5E5E5E"/>
<stop offset="0.833333" stop-color="#5E5E5E" stop-opacity="0.75"/>
<stop offset="1" stop-color="#5E5E5E"/>
</linearGradient>
<linearGradient id="paint1_linear_1_2" x1="233.5" y1="364" x2="193.5" y2="434.5" gradientUnits="userSpaceOnUse">
<stop stop-color="#5E5E5E"/>
<stop offset="0.171875" stop-color="#5E5E5E" stop-opacity="0.75"/>
<stop offset="0.348828" stop-color="#5E5E5E"/>
<stop offset="0.531381" stop-color="#5E5E5E" stop-opacity="0.75"/>
<stop offset="0.708464" stop-color="#5E5E5E"/>
<stop offset="0.885547" stop-color="#5E5E5E" stop-opacity="0.75"/>
<stop offset="0.984375" stop-color="#5E5E5E"/>
</linearGradient>
</defs>
</svg>
